<svg id="visual" viewBox="0 0 900 600" width="900" height="600" xmlns="http://www.w3.org/2000/svg" xmlns:xlink="http://www.w3.org/1999/xlink" version="1.1"><rect x="0" y="0" width="900" height="600" fill="#ffffff"></rect><path d="M0 307L21.5 306.3C43 305.7 86 304.3 128.8 302C171.7 299.7 214.3 296.3 257.2 305.3C300 314.3 343 335.7 385.8 345.2C428.7 354.7 471.3 352.3 514.2 353.7C557 355 600 360 642.8 358.3C685.7 356.7 728.3 348.3 771.2 336.8C814 325.3 857 310.7 878.5 303.3L900 296L900 601L878.5 601C857 601 814 601 771.2 601C728.3 601 685.7 601 642.8 601C600 601 557 601 514.2 601C471.3 601 428.7 601 385.8 601C343 601 300 601 257.2 601C214.3 601 171.7 601 128.8 601C86 601 43 601 21.5 601L0 601Z" fill="#ffffff"></path><path d="M0 422L21.5 421C43 420 86 418 128.8 416.5C171.7 415 214.3 414 257.2 409.2C300 404.3 343 395.7 385.8 397.2C428.7 398.7 471.3 410.3 514.2 414.3C557 418.3 600 414.7 642.8 405.8C685.7 397 728.3 383 771.2 380.3C814 377.7 857 386.3 878.5 390.7L900 395L900 601L878.5 601C857 601 814 601 771.2 601C728.3 601 685.7 601 642.8 601C600 601 557 601 514.2 601C471.3 601 428.7 601 385.8 601C343 601 300 601 257.2 601C214.3 601 171.7 601 128.8 601C86 601 43 601 21.5 601L0 601Z" fill="#b6b6b6"></path><path d="M0 448L21.5 453.8C43 459.7 86 471.3 128.8 471.3C171.7 471.3 214.3 459.7 257.2 450.7C300 441.7 343 435.3 385.8 436.3C428.7 437.3 471.3 445.7 514.2 445.2C557 444.7 600 435.3 642.8 440C685.7 444.7 728.3 463.3 771.2 463.8C814 464.3 857 446.7 878.5 437.8L900 429L900 601L878.5 601C857 601 814 601 771.2 601C728.3 601 685.7 601 642.8 601C600 601 557 601 514.2 601C471.3 601 428.7 601 385.8 601C343 601 300 601 257.2 601C214.3 601 171.7 601 128.8 601C86 601 43 601 21.5 601L0 601Z" fill="#737373"></path><path d="M0 533L21.5 526.7C43 520.3 86 507.7 128.8 502.8C171.7 498 214.3 501 257.2 501.7C300 502.3 343 500.7 385.8 505.5C428.7 510.3 471.3 521.7 514.2 525.3C557 529 600 525 642.8 518.8C685.7 512.7 728.3 504.3 771.2 500.3C814 496.3 857 496.7 878.5 496.8L900 497L900 601L878.5 601C857 601 814 601 771.2 601C728.3 601 685.7 601 642.8 601C600 601 557 601 514.2 601C471.3 601 428.7 601 385.8 601C343 601 300 601 257.2 601C214.3 601 171.7 601 128.8 601C86 601 43 601 21.5 601L0 601Z" fill="#363636"></path></svg>