<svg id="visual" viewBox="0 0 900 600" width="900" height="600" xmlns="http://www.w3.org/2000/svg" xmlns:xlink="http://www.w3.org/1999/xlink" version="1.1"><rect x="0" y="0" width="900" height="600" fill="#fdfdfd"></rect><path d="M0 425L21.5 429C43 433 86 441 128.8 445.7C171.7 450.3 214.3 451.7 257.2 447.7C300 443.7 343 434.3 385.8 429.3C428.7 424.3 471.3 423.7 514.2 425.2C557 426.7 600 430.3 642.8 439C685.7 447.7 728.3 461.3 771.2 463C814 464.7 857 454.3 878.5 449.2L900 444L900 601L878.5 601C857 601 814 601 771.2 601C728.3 601 685.7 601 642.8 601C600 601 557 601 514.2 601C471.3 601 428.7 601 385.8 601C343 601 300 601 257.2 601C214.3 601 171.7 601 128.8 601C86 601 43 601 21.5 601L0 601Z" fill="#5BA99D" stroke-linecap="round" stroke-linejoin="miter"></path></svg>