<svg id="visual" viewBox="0 0 900 600" width="900" height="600" xmlns="http://www.w3.org/2000/svg" xmlns:xlink="http://www.w3.org/1999/xlink" version="1.1"><rect x="0" y="0" width="900" height="600" fill="#fdfdfd"></rect><path d="M0 313L21.5 313C43 313 86 313 128.8 311.8C171.7 310.7 214.3 308.3 257.2 307C300 305.7 343 305.3 385.8 306.8C428.7 308.3 471.3 311.7 514.2 308.8C557 306 600 297 642.8 292.5C685.7 288 728.3 288 771.2 291.3C814 294.7 857 301.3 878.5 304.7L900 308L900 601L878.5 601C857 601 814 601 771.2 601C728.3 601 685.7 601 642.8 601C600 601 557 601 514.2 601C471.3 601 428.7 601 385.8 601C343 601 300 601 257.2 601C214.3 601 171.7 601 128.8 601C86 601 43 601 21.5 601L0 601Z" fill="#d2ffb8"></path><path d="M0 383L21.5 386.5C43 390 86 397 128.8 399.8C171.7 402.7 214.3 401.3 257.2 398.3C300 395.3 343 390.7 385.8 386.8C428.7 383 471.3 380 514.2 379.3C557 378.7 600 380.3 642.8 382.3C685.7 384.3 728.3 386.7 771.2 386.2C814 385.7 857 382.3 878.5 380.7L900 379L900 601L878.5 601C857 601 814 601 771.2 601C728.3 601 685.7 601 642.8 601C600 601 557 601 514.2 601C471.3 601 428.7 601 385.8 601C343 601 300 601 257.2 601C214.3 601 171.7 601 128.8 601C86 601 43 601 21.5 601L0 601Z" fill="#8ed5ad"></path><path d="M0 473L21.5 472.5C43 472 86 471 128.8 471.8C171.7 472.7 214.3 475.3 257.2 475.7C300 476 343 474 385.8 475.7C428.7 477.3 471.3 482.7 514.2 482.8C557 483 600 478 642.8 475C685.7 472 728.3 471 771.2 472.7C814 474.3 857 478.7 878.5 480.8L900 483L900 601L878.5 601C857 601 814 601 771.2 601C728.3 601 685.7 601 642.8 601C600 601 557 601 514.2 601C471.3 601 428.7 601 385.8 601C343 601 300 601 257.2 601C214.3 601 171.7 601 128.8 601C86 601 43 601 21.5 601L0 601Z" fill="#5ba99d"></path></svg>