<svg id="visual" viewBox="0 0 900 600" width="900" height="600" xmlns="http://www.w3.org/2000/svg" xmlns:xlink="http://www.w3.org/1999/xlink" version="1.1"><rect x="0" y="0" width="900" height="600" fill="#ffffff"></rect><path d="M0 457L30 452.8C60 448.7 120 440.3 180 440.8C240 441.3 300 450.7 360 457.8C420 465 480 470 540 466C600 462 660 449 720 443.5C780 438 840 440 870 441L900 442L900 601L870 601C840 601 780 601 720 601C660 601 600 601 540 601C480 601 420 601 360 601C300 601 240 601 180 601C120 601 60 601 30 601L0 601Z" fill="#202020" stroke-linecap="round" stroke-linejoin="miter"></path></svg>