<svg id="visual" viewBox="0 0 900 600" width="900" height="600" xmlns="http://www.w3.org/2000/svg" xmlns:xlink="http://www.w3.org/1999/xlink" version="1.1"><rect x="0" y="0" width="900" height="600" fill="#ffffff"></rect><path d="M0 456L25 453.5C50 451 100 446 150 443.2C200 440.3 250 439.7 300 443C350 446.3 400 453.7 450 459.2C500 464.7 550 468.3 600 468C650 467.7 700 463.3 750 458.5C800 453.7 850 448.3 875 445.7L900 443L900 601L875 601C850 601 800 601 750 601C700 601 650 601 600 601C550 601 500 601 450 601C400 601 350 601 300 601C250 601 200 601 150 601C100 601 50 601 25 601L0 601Z" fill="#202020" stroke-linecap="round" stroke-linejoin="miter"></path></svg>